# xmcd CD database file
#
# Track frame offsets:
#	150
#	16488
#	29884
#	46007
#	65885
#	86302
#	104545
#	122603
#	146200
#	168190
#	188970
#	210772
#	224939
#	241066
#	262051
#	286720
#
# Disc length: 4104 seconds
#
# Revision: 4
# Processed by: cddbd v1.4PL0 Copyright (c) Steve Scherf et al.
# Submitted via: CdAid 2001.05.15.01
#
DISCID=ef100610
DTITLE=Ana Belén y Víctor Manuel - Mucho más que dos-CD2
DYEAR=1900
DGENRE=
TTITLE0=Mediterraneo
TTITLE1=La paloma
TTITLE2=Soy un corazon tendido al Sol
TTITLE3=Yo tambien naci en el 53
TTITLE4=Luna
TTITLE5=Blues del autobus
TTITLE6=El abuelo Victor
TTITLE7=El hombre del piano
TTITLE8=La Madre
TTITLE9=Marilyn Monroe
TTITLE10=Cruzar los brazos
TTITLE11=Quiero abrazarte tanto
TTITLE12=Desde mi libertad
TTITLE13=Asturias
TTITLE14=La Puerta de Alcala
TTITLE15=La Muralla
EXTD=1994
EXTT0=
EXTT1=
EXTT2=
EXTT3=
EXTT4=
EXTT5=
EXTT6=
EXTT7=
EXTT8=
EXTT9=
EXTT10=
EXTT11=
EXTT12=
EXTT13=
EXTT14=
EXTT15=
PLAYORDER=
